#!OML:ASF F:\VICON\USERDATA\INSTALL\rory3\rory3.ASF
:FULLY-SPECIFIED
:DEGREES
152
root -0.487878 16.4569 6.7377 -164.673 -3.77375 -175.086
lowerback -5.41826 2.56378 -0.494797
upperback -5.89091 2.99231 1.50152
thorax -3.15234 1.343 1.91001
lowerneck -12.6118 -0.481997 -2.79857
upperneck 30.71 -3.84221 4.78945
head 12.3685 -2.26655 1.57835
rclavicle -1.41727e-014 -7.85199e-015
rhumerus 25.8117 55.3611 -46.2738
rradius 79.8229
rwrist 27.4349
rhand -23.6319 41.5265
rfingers 7.12502
rthumb 2.83285 11.5656
lclavicle -1.41727e-014 -7.85199e-015
lhumerus 79.3265 -52.4405 -0.492907
lradius 97.2476
lwrist -30.545
lhand -32.4379 11.7222
lfingers 7.12502
lthumb -5.67152 41.6263
rfemur -18.3754 6.32926 32.3972
rtibia 42.4438
rfoot -23.6697 -24.3346
rtoes 1.8163
lfemur -60.9972 -4.31504 -16.9225
ltibia 41.589
lfoot -28.6063 26.0399
ltoes 47.3484
153
root -0.519798 16.5575 6.54242 -164.198 -3.57089 -175.195
lowerback -5.96416 2.59907 -0.788958
upperback -6.23577 2.9915 1.41098
thorax -3.22131 1.32981 1.99787
lowerneck -12.5633 -0.448873 -2.80841
upperneck 30.984 -3.91591 4.90839
head 12.477 -2.30971 1.61246
rclavicle 5.46658e-015 1.13307e-014
rhumerus 25.7761 56.1171 -43.0391
rradius 82.2033
rwrist 26.764
rhand -23.2543 43.5866
rfingers 7.12502
rthumb 3.19756 13.6308
lclavicle 5.46658e-015 1.13307e-014
lhumerus 77.4879 -51.7873 -2.21087
lradius 98.526
lwrist -31.9035
lhand -31.9768 11.4598
lfingers 7.12502
lthumb -5.22629 41.3753
rfemur -18.1256 5.94756 31.9901
rtibia 41.941
rfoot -21.4765 -23.644
rtoes -0.259377
lfemur -60.5604 -4.71654 -16.6606
ltibia 41.4926
lfoot -29.6736 25.048
ltoes 47.3487
154
root -0.563095 16.6599 6.32418 -163.832 -3.00212 -175.306
lowerback -6.70047 2.74396 -1.04724
upperback -6.52547 3.13351 1.28758
thorax -3.13109 1.38351 2.04559
lowerneck -12.4267 -0.406467 -2.67418
upperneck 31.2576 -3.99514 4.92656
head 12.563 -2.35681 1.58186
rclavicle 1.57879e-014 2.08724e-014
rhumerus 25.4276 56.8436 -40.1938
rradius 84.2056
rwrist 25.4733
rhand -22.3405 45.0639
rfingers 7.12502
rthumb 4.07997 15.1232
lclavicle 1.57879e-014 2.08724e-014
lhumerus 75.3668 -51.4287 -3.62164
lradius 99.1939
lwrist -33.5222
lhand -31.8535 10.6176
lfingers 7.12502
lthumb -5.10726 40.5361
rfemur -17.654 5.3703 31.4573
rtibia 41.4732
rfoot -19.1522 -22.7091
rtoes -3.37539
lfemur -59.911 -4.80636 -16.5394
ltibia 41.4637
lfoot -30.753 23.9244
ltoes 47.3386
155
root -0.595441 16.7588 6.11913 -163.503 -2.56901 -175.501
lowerback -7.35103 2.8339 -1.46602
upperback -6.7512 3.22254 1.14611
thorax -3.0306 1.42075 2.1612
lowerneck -12.2805 -0.323564 -2.6291
upperneck 31.3785 -4.00187 5.10209
head 12.5859 -2.35316 1.63888
rclavicle -3.04484e-014 -9.74045e-015
rhumerus 24.844 57.4339 -37.5685
rradius 85.8722
rwrist 23.4407
rhand -21.1337 46.2141
rfingers 7.12502
rthumb 5.2453 16.299
lclavicle -3.04484e-014 -9.74045e-015
lhumerus 73.2964 -51.0036 -5.04949
lradius 99.4844
lwrist -35.1415
lhand -32.2387 8.33845
lfingers 7.12502
lthumb -5.47918 38.2476
rfemur -17.3432 4.68078 30.8821
rtibia 41.0856
rfoot -16.9908 -21.6228
rtoes -3.85046
lfemur -59.3474 -5.00264 -16.4446
ltibia 41.4431
lfoot -31.3075 23.1004
ltoes 48.3715
156
root -0.622287 16.8557 5.91454 -163.323 -2.15715 -175.693
lowerback -8.64371 2.83437 -1.93849
upperback -6.39326 3.27204 1.04113
thorax -1.97075 1.45212 2.38546
lowerneck -12.3048 -0.294083 -2.51102
upperneck 31.0173 -3.9167 5.17967
head 12.4382 -2.26866 1.6618
rclavicle -1.65317e-014 -1.35174e-014
rhumerus 25.1291 57.4073 -34.2544
rradius 87.1227
rwrist 20.7254
rhand -19.6602 47.4086
rfingers 7.12502
rthumb 6.66788 17.5336
lclavicle -1.65317e-014 -1.35174e-014
lhumerus 71.2321 -49.9103 -6.66815
lradius 99.6749
lwrist -36.6243
lhand -32.4062 6.78798
lfingers 7.12502
lthumb -5.64094 36.6929
rfemur -17.0076 3.92396 30.3299
rtibia 40.7671
rfoot -14.5797 -20.5669
rtoes -3.94887
lfemur -58.663 -5.20215 -16.3561
ltibia 41.4454
lfoot -31.7168 22.5008
ltoes 49.0554
157
root -0.653749 16.9496 5.71057 -163.203 -1.78756 -175.647
lowerback -8.07743 2.99745 -2.28202
upperback -7.32403 3.37504 0.989099
thorax -3.28867 1.48749 2.48292
lowerneck -11.7136 -0.193754 -2.40921
upperneck 31.6557 -4.10034 5.29795
head 12.5868 -2.40813 1.65794
rclavicle -3.60421e-014 -3.57812e-015
rhumerus 21.3541 58.5934 -34.2638
rradius 87.8966
rwrist 18.1631
rhand -18.3345 49.0028
rfingers 7.12502
rthumb 7.94753 19.1722
lclavicle -3.60421e-014 -3.57812e-015
lhumerus 69.4816 -50.8728 -8.61502
lradius 99.6767
lwrist -38.1377
lhand -32.29 6.35649
lfingers 7.12502
lthumb -5.52874 36.2644
rfemur -16.6863 2.83469 30.0232
rtibia 40.5185
rfoot -11.6886 -19.4969
rtoes -4.79781
lfemur -57.9659 -5.36891 -16.0394
ltibia 41.4612
lfoot -32.311 21.5338
ltoes 49.482
158
root -0.687171 17.0387 5.50673 -163.102 -1.30645 -175.506
lowerback -8.33529 3.02818 -2.51088
upperback -7.65041 3.36419 1.05057
thorax -3.51299 1.47112 2.68001
lowerneck -11.3312 -0.0607497 -2.33097
upperneck 31.8581 -4.07441 5.38292
head 12.5888 -2.42126 1.67783
rclavicle -1.28465e-014 -7.35503e-015
rhumerus 21.1958 60.1369 -31.322
rradius 88.7332
rwrist 14.4737
rhand -17.1442 48.2012
rfingers 7.12502
rthumb 9.09616 18.4173
lclavicle -1.28465e-014 -7.35503e-015
lhumerus 66.8989 -51.1548 -10.0249
lradius 99.332
lwrist -39.5072
lhand -32.4559 6.62772
lfingers 7.12502
lthumb -5.68893 36.5314
rfemur -16.4804 1.51579 29.6971
rtibia 40.3731
rfoot -8.56125 -18.1779
rtoes -4.46393
lfemur -57.2466 -5.40669 -15.6721
ltibia 41.4819
lfoot -33.2694 19.9096
ltoes 50.2108
159
root -0.725275 17.1279 5.29708 -163.056 -0.88087 -175.271
lowerback -8.72264 3.01096 -2.56457
upperback -7.84858 3.29624 1.17443
thorax -3.51855 1.42128 2.85035
lowerneck -11.0759 0.106578 -2.15503
upperneck 32.0326 -3.91681 5.2501
head 12.5925 -2.37908 1.61573
rclavicle 2.19284e-014 1.37161e-014
rhumerus 21.5612 61.734 -27.887
rradius 89.3561
rwrist 10.8988
rhand -16.4404 46.3806
rfingers 7.12502
rthumb 9.77526 16.6275
lclavicle 2.19284e-014 1.37161e-014
lhumerus 64.0842 -51.4519 -11.0404
lradius 98.5523
lwrist -40.6561
lhand -33.2827 6.65329
lfingers 7.12502
lthumb -6.48714 36.5339
rfemur -16.3235 -0.310482 29.3289
rtibia 40.3662
rfoot -5.87652 -16.6335
rtoes -0.0332229
lfemur -56.4457 -5.50826 -15.2442
ltibia 41.5339
lfoot -34.0344 18.5234
ltoes 50.4842
160
root -0.764575 17.2179 5.09511 -163.026 -0.411468 -175.036
lowerback -9.25948 1.79426 -2.391
upperback -7.82598 3.56751 1.43255
thorax -3.19429 2.36372 3.02054
lowerneck -11.0415 0.230528 -2.12498
upperneck 32.1652 -3.77909 5.21836
head 12.6318 -2.33349 1.61579
rclavicle -1.18028e-014 -2.38542e-015
rhumerus 21.069 62.5692 -25.135
rradius 89.5982
rwrist 8.44418
rhand -16.0014 45.4262
rfingers 7.12502
rthumb 10.1988 15.6935
lclavicle -1.18028e-014 -2.38542e-015
lhumerus 61.4066 -51.6472 -11.8797
lradius 97.4371
lwrist -41.6048
lhand -34.4863 6.24923
lfingers 7.12502
lthumb -7.64897 36.0909
rfemur -16.394 -2.10592 28.8999
rtibia 40.5359
rfoot -2.71736 -15.5291
rtoes 3.94902
lfemur -55.7067 -5.16844 -15.1167
ltibia 41.6599
lfoot -33.6214 18.8449
ltoes 50.0404
